<?xml version="1.0" encoding="UTF-8" standalone="no"?>
<svg
   width="1278.4819"
   height="550.10101"
   viewBox="-62.5 0 1022.7855 440.08081"
   version="1.1"
   id="svg104"
   xmlns="http://www.w3.org/2000/svg"
   xmlns:svg="http://www.w3.org/2000/svg">
  <defs
     id="defs1" />
  <path
     d="m -21.5,66.580807 h 15"
     stroke-width="3"
     stroke="#8b0000"
     stroke-linejoin="miter"
     fill="none"
     id="path1" />
  <path
     d="m -21.5,116.58081 h 15"
     stroke-width="3"
     stroke="#8b0000"
     stroke-linejoin="miter"
     fill="none"
     id="path2" />
  <path
     d="m -21.5,166.58081 h 15"
     stroke-width="3"
     stroke="#8b0000"
     stroke-linejoin="miter"
     fill="none"
     id="path3" />
  <path
     d="m -21.5,216.58081 h 15"
     stroke-width="3"
     stroke="#8b0000"
     stroke-linejoin="miter"
     fill="none"
     id="path4" />
  <path
     d="m -21.5,266.58081 h 15"
     stroke-width="3"
     stroke="#8b0000"
     stroke-linejoin="miter"
     fill="none"
     id="path5" />
  <path
     d="m -21.5,316.58081 h 15"
     stroke-width="3"
     stroke="#8b0000"
     stroke-linejoin="miter"
     fill="none"
     id="path6" />
  <path
     d="m -21.5,366.58081 h 15"
     stroke-width="3"
     stroke="#8b0000"
     stroke-linejoin="miter"
     fill="none"
     id="path7" />
  <path
     d="m -21.5,416.58081 h 15"
     stroke-width="3"
     stroke="#8b0000"
     stroke-linejoin="miter"
     fill="none"
     id="path8" />
  <path
     d="m -4.5,43.580807 h 396 V 439.58081 h -396 z"
     stroke="#000000"
     fill="#add8e6"
     stroke-dasharray="1, 2"
     stroke-linejoin="miter"
     id="path9" />
  <path
     d="m -6.5,66.580807 h 100"
     stroke="#8b0000"
     stroke-width="3"
     fill="none"
     id="path10" />
  <path
     d="m -6.5,116.58081 h 100"
     stroke="#8b0000"
     stroke-width="3"
     fill="none"
     id="path11" />
  <path
     d="M -4,44.080807 H 91 V 139.08081 H -4 Z"
     stroke="#8b0000"
     fill="#ffb6c1"
     stroke-linejoin="miter"
     id="path12" />
  <text
     x="3.5"
     y="57.580807"
     font-size="8px"
     text-anchor="start"
     font-weight="bold"
     id="text12">PHI</text>
  <path
     d="m 93.5,66.580807 h 100"
     stroke="#8b0000"
     stroke-width="3"
     fill="none"
     id="path13" />
  <path
     d="m 93.5,116.58081 h 100"
     stroke="#8b0000"
     stroke-width="3"
     fill="none"
     id="path14" />
  <path
     d="m 96,44.080807 h 95 V 139.08081 H 96 Z"
     stroke="#8b0000"
     fill="#ffb6c1"
     stroke-linejoin="miter"
     id="path15" />
  <text
     x="103.5"
     y="57.580807"
     font-size="8px"
     text-anchor="start"
     font-weight="bold"
     id="text15">ENCODING</text>
  <path
     d="m 193.5,66.580807 h 100"
     stroke="#8b0000"
     stroke-width="3"
     fill="none"
     id="path16" />
  <path
     d="m 193.5,116.58081 h 100"
     stroke="#8b0000"
     stroke-width="3"
     fill="none"
     id="path17" />
  <path
     d="m 196,44.080807 h 95 v 95.000003 h -95 z"
     stroke="#8b0000"
     fill="#ffb6c1"
     stroke-linejoin="miter"
     id="path18" />
  <text
     x="203.5"
     y="57.580807"
     font-size="8px"
     text-anchor="start"
     font-weight="bold"
     id="text18">PSI</text>
  <path
     d="m -6.5,166.58081 h 300"
     stroke="#8b0000"
     stroke-width="3"
     fill="none"
     id="path19" />
  <path
     d="m -6.5,216.58081 h 300"
     stroke="#8b0000"
     stroke-width="3"
     fill="none"
     id="path20" />
  <path
     d="m -6.5,266.58081 h 300"
     stroke="#8b0000"
     stroke-width="3"
     fill="none"
     id="path21" />
  <path
     d="m -6.5,316.58081 h 300"
     stroke="#8b0000"
     stroke-width="3"
     fill="none"
     id="path22" />
  <path
     d="m -6.5,366.58081 h 300"
     stroke="#8b0000"
     stroke-width="3"
     fill="none"
     id="path23" />
  <path
     d="m -6.5,416.58081 h 300"
     stroke="#8b0000"
     stroke-width="3"
     fill="none"
     id="path24" />
  <path
     d="m 293.5,66.580807 h 100"
     stroke="#8b0000"
     stroke-width="3"
     fill="none"
     id="path25" />
  <path
     d="m 293.5,116.58081 h 100"
     stroke="#8b0000"
     stroke-width="3"
     fill="none"
     id="path26" />
  <path
     d="m 293.5,166.58081 h 100"
     stroke="#8b0000"
     stroke-width="3"
     fill="none"
     id="path27" />
  <path
     d="m 293.5,216.58081 h 100"
     stroke="#8b0000"
     stroke-width="3"
     fill="none"
     id="path28" />
  <path
     d="m 293.5,266.58081 h 100"
     stroke="#8b0000"
     stroke-width="3"
     fill="none"
     id="path29" />
  <path
     d="m 293.5,316.58081 h 100"
     stroke="#8b0000"
     stroke-width="3"
     fill="none"
     id="path30" />
  <path
     d="m 293.5,366.58081 h 100"
     stroke="#8b0000"
     stroke-width="3"
     fill="none"
     id="path31" />
  <path
     d="m 293.5,416.58081 h 100"
     stroke="#8b0000"
     stroke-width="3"
     fill="none"
     id="path32" />
  <path
     d="m 296,44.080807 h 95 V 439.08081 h -95 z"
     stroke="#8b0000"
     fill="#ffb6c1"
     stroke-linejoin="miter"
     id="path33" />
  <text
     x="303.5"
     y="57.580807"
     font-size="8px"
     text-anchor="start"
     font-weight="bold"
     id="text33">THETA</text>
  <path
     d="m 393.5,66.580807 h 15"
     stroke-width="3"
     stroke="#8b0000"
     stroke-linejoin="miter"
     fill="none"
     id="path34" />
  <path
     d="m 393.5,116.58081 h 15"
     stroke-width="3"
     stroke="#8b0000"
     stroke-linejoin="miter"
     fill="none"
     id="path35" />
  <path
     d="m 393.5,166.58081 h 83.22472"
     stroke-width="3"
     stroke="#8b0000"
     stroke-linejoin="miter"
     fill="none"
     id="path36" />
  <path
     d="m 393.5,216.58081 h 92.44428"
     stroke-width="3"
     stroke="#8b0000"
     stroke-linejoin="miter"
     fill="none"
     id="path37" />
  <path
     d="m 393.5,266.58081 h 92.44428"
     stroke-width="3"
     stroke="#8b0000"
     stroke-linejoin="miter"
     fill="none"
     id="path38" />
  <path
     d="m 393.5,316.58081 h 96.1321"
     stroke-width="3"
     stroke="#8b0000"
     stroke-linejoin="miter"
     fill="none"
     id="path39" />
  <path
     d="m 393.5,366.58081 h 81.38081"
     stroke-width="3"
     stroke="#8b0000"
     stroke-linejoin="miter"
     fill="none"
     id="path40" />
  <path
     d="m 393.5,416.58081 h 83.22472"
     stroke-width="3"
     stroke="#8b0000"
     stroke-linejoin="miter"
     fill="none"
     id="path41" />
  <path
     d="m -44,66.580807 h 23"
     stroke="#8b0000"
     stroke-width="3"
     fill="none"
     id="path42" />
  <path
     d="m -62,66.580807 c 0,0 0,-10 10,-10 h 8 v 20 h -8 c -10,0 -10,-10 -10,-10 v 0"
     stroke-width="1"
     stroke="#000000"
     stroke-linejoin="miter"
     fill="#ffffff"
     id="path43" />
  <text
     x="-52"
     y="69.580811"
     font-size="7px"
     text-anchor="middle"
     id="text43">1</text>
  <path
     d="m -44,116.58081 h 23"
     stroke="#8b0000"
     stroke-width="3"
     fill="none"
     id="path44" />
  <path
     d="m -62,116.58081 c 0,0 0,-10 10,-10 h 8 v 20 h -8 c -10,0 -10,-10 -10,-10 v 0"
     stroke-width="1"
     stroke="#000000"
     stroke-linejoin="miter"
     fill="#ffffff"
     id="path45" />
  <text
     x="-52"
     y="119.58081"
     font-size="7px"
     text-anchor="middle"
     id="text45">0</text>
  <path
     d="m -44,166.58081 h 23"
     stroke="#8b0000"
     stroke-width="3"
     fill="none"
     id="path46" />
  <path
     d="m -62,166.58081 c 0,0 0,-10 10,-10 h 8 v 20 h -8 c -10,0 -10,-10 -10,-10 v 0"
     stroke-width="1"
     stroke="#000000"
     stroke-linejoin="miter"
     fill="#ffffff"
     id="path47" />
  <text
     x="-52"
     y="169.58081"
     font-size="7px"
     text-anchor="middle"
     id="text47">1</text>
  <path
     d="m -44,216.58081 h 23"
     stroke="#8b0000"
     stroke-width="3"
     fill="none"
     id="path48" />
  <path
     d="m -62,216.58081 c 0,0 0,-10 10,-10 h 8 v 20 h -8 c -10,0 -10,-10 -10,-10 v 0"
     stroke-width="1"
     stroke="#000000"
     stroke-linejoin="miter"
     fill="#ffffff"
     id="path49" />
  <text
     x="-52"
     y="219.58081"
     font-size="7px"
     text-anchor="middle"
     id="text49">0</text>
  <path
     d="m -44,266.58081 h 23"
     stroke="#8b0000"
     stroke-width="3"
     fill="none"
     id="path50" />
  <path
     d="m -62,266.58081 c 0,0 0,-10 10,-10 h 8 v 20 h -8 c -10,0 -10,-10 -10,-10 v 0"
     stroke-width="1"
     stroke="#000000"
     stroke-linejoin="miter"
     fill="#ffffff"
     id="path51" />
  <text
     x="-52"
     y="269.58081"
     font-size="7px"
     text-anchor="middle"
     id="text51">1</text>
  <path
     d="m -44,316.58081 h 23"
     stroke="#8b0000"
     stroke-width="3"
     fill="none"
     id="path52" />
  <path
     d="m -62,316.58081 c 0,0 0,-10 10,-10 h 8 v 20 h -8 c -10,0 -10,-10 -10,-10 v 0"
     stroke-width="1"
     stroke="#000000"
     stroke-linejoin="miter"
     fill="#ffffff"
     id="path53" />
  <text
     x="-52"
     y="319.58081"
     font-size="7px"
     text-anchor="middle"
     id="text53">0</text>
  <path
     d="m -44,366.58081 h 23"
     stroke="#8b0000"
     stroke-width="3"
     fill="none"
     id="path54" />
  <path
     d="m -62,366.58081 c 0,0 0,-10 10,-10 h 8 v 20 h -8 c -10,0 -10,-10 -10,-10 v 0"
     stroke-width="1"
     stroke="#000000"
     stroke-linejoin="miter"
     fill="#ffffff"
     id="path55" />
  <text
     x="-52"
     y="369.58081"
     font-size="7px"
     text-anchor="middle"
     id="text55">1</text>
  <path
     d="m -44,416.58081 h 23"
     stroke="#8b0000"
     stroke-width="3"
     fill="none"
     id="path56" />
  <rect
     style="fill:#ffffff;stroke:#000000;stroke-width:0.8"
     id="rect105"
     width="32.268448"
     height="110.63468"
     x="413.99756"
     y="33.588097" />
  <path
     d="m -62,416.58081 c 0,0 0,-10 10,-10 h 8 v 20 h -8 c -10,0 -10,-10 -10,-10 v 0"
     stroke-width="1"
     stroke="#000000"
     stroke-linejoin="miter"
     fill="#ffffff"
     id="path57" />
  <text
     x="-52"
     y="419.58081"
     font-size="7px"
     text-anchor="middle"
     id="text57">0</text>
  <path
     d="m 407.3,66.580807 h 25"
     stroke-width="3"
     stroke="#8b0000"
     stroke-linejoin="miter"
     fill="none"
     id="path66" />
  <path
     d="m 421.3,76.580807 18,-10 -18,-10 v 20"
     stroke-width="1"
     stroke="#000000"
     stroke-linejoin="miter"
     fill="#d3d3d3"
     id="path67" />
  <text
     x="419.29996"
     y="53.580807"
     font-size="5px"
     text-anchor="start"
     font-style="italic"
     id="text67">Threshold</text>
  <path
     d="m 407.3,116.58081 h 25"
     stroke-width="3"
     stroke="#8b0000"
     stroke-linejoin="miter"
     fill="none"
     id="path68" />
  <path
     d="m 421.3,126.58081 18,-10 -18,-10 v 20"
     stroke-width="1"
     stroke="#000000"
     stroke-linejoin="miter"
     fill="#d3d3d3"
     id="path69" />
  <text
     x="419.29996"
     y="103.58081"
     font-size="5px"
     text-anchor="start"
     font-style="italic"
     id="text69">Threshold</text>
  <path
     d="m 492.26936,66.562738 h 15"
     stroke-width="3"
     stroke="#8b0000"
     stroke-linejoin="miter"
     fill="none"
     id="path1-2" />
  <path
     d="m 492.26936,116.56274 h 15"
     stroke-width="3"
     stroke="#8b0000"
     stroke-linejoin="miter"
     fill="none"
     id="path2-7" />
  <path
     d="m 492.26936,166.56274 h 15"
     stroke-width="3"
     stroke="#8b0000"
     stroke-linejoin="miter"
     fill="none"
     id="path3-1" />
  <path
     d="m 492.26936,216.56274 h 15"
     stroke-width="3"
     stroke="#8b0000"
     stroke-linejoin="miter"
     fill="none"
     id="path4-5" />
  <path
     d="m 492.26936,266.56274 h 15"
     stroke-width="3"
     stroke="#8b0000"
     stroke-linejoin="miter"
     fill="none"
     id="path5-2" />
  <path
     d="m 492.26936,316.56274 h 15"
     stroke-width="3"
     stroke="#8b0000"
     stroke-linejoin="miter"
     fill="none"
     id="path6-1" />
  <path
     d="m 492.26936,366.56274 h 15"
     stroke-width="3"
     stroke="#8b0000"
     stroke-linejoin="miter"
     fill="none"
     id="path7-1" />
  <path
     d="m 492.26936,416.56274 h 15"
     stroke-width="3"
     stroke="#8b0000"
     stroke-linejoin="miter"
     fill="none"
     id="path8-0" />
  <path
     d="m 509.26936,43.562737 h 396 V 439.56274 h -396 z"
     stroke="#000000"
     fill="#add8e6"
     stroke-dasharray="1, 2"
     stroke-linejoin="miter"
     id="path9-1" />
  <path
     d="m 507.26936,66.562738 h 100"
     stroke="#8b0000"
     stroke-width="3"
     fill="none"
     id="path10-8" />
  <path
     d="m 507.26936,116.56274 h 100"
     stroke="#8b0000"
     stroke-width="3"
     fill="none"
     id="path11-7" />
  <path
     d="m 509.76936,44.062737 h 95 v 95.000003 h -95 z"
     stroke="#8b0000"
     fill="#ffb6c1"
     stroke-linejoin="miter"
     id="path12-6" />
  <text
     x="517.26935"
     y="57.562737"
     font-size="8px"
     text-anchor="start"
     font-weight="bold"
     id="text12-0">PHI</text>
  <path
     d="m 607.26936,66.562738 h 100"
     stroke="#8b0000"
     stroke-width="3"
     fill="none"
     id="path13-0" />
  <path
     d="m 607.26936,116.56274 h 100"
     stroke="#8b0000"
     stroke-width="3"
     fill="none"
     id="path14-9" />
  <path
     d="m 609.76936,44.062737 h 95 v 95.000003 h -95 z"
     stroke="#8b0000"
     fill="#ffb6c1"
     stroke-linejoin="miter"
     id="path15-5" />
  <text
     x="617.26935"
     y="57.562737"
     font-size="8px"
     text-anchor="start"
     font-weight="bold"
     id="text15-6">ENCODING</text>
  <path
     d="m 707.26936,66.562738 h 100"
     stroke="#8b0000"
     stroke-width="3"
     fill="none"
     id="path16-2" />
  <path
     d="m 707.26936,116.56274 h 100"
     stroke="#8b0000"
     stroke-width="3"
     fill="none"
     id="path17-8" />
  <path
     d="m 709.76936,44.062737 h 95 v 95.000003 h -95 z"
     stroke="#8b0000"
     fill="#ffb6c1"
     stroke-linejoin="miter"
     id="path18-5" />
  <text
     x="717.26935"
     y="57.562737"
     font-size="8px"
     text-anchor="start"
     font-weight="bold"
     id="text18-9">PSI</text>
  <path
     d="m 507.26936,166.56274 h 300"
     stroke="#8b0000"
     stroke-width="3"
     fill="none"
     id="path19-4" />
  <path
     d="m 507.26936,216.56274 h 300"
     stroke="#8b0000"
     stroke-width="3"
     fill="none"
     id="path20-3" />
  <path
     d="m 507.26936,266.56274 h 300"
     stroke="#8b0000"
     stroke-width="3"
     fill="none"
     id="path21-9" />
  <path
     d="m 507.26936,316.56274 h 300"
     stroke="#8b0000"
     stroke-width="3"
     fill="none"
     id="path22-0" />
  <path
     d="m 507.26936,366.56274 h 300"
     stroke="#8b0000"
     stroke-width="3"
     fill="none"
     id="path23-5" />
  <path
     d="m 507.26936,416.56274 h 300"
     stroke="#8b0000"
     stroke-width="3"
     fill="none"
     id="path24-6" />
  <path
     d="m 807.26936,66.562738 h 100"
     stroke="#8b0000"
     stroke-width="3"
     fill="none"
     id="path25-3" />
  <path
     d="m 807.26936,116.56274 h 100"
     stroke="#8b0000"
     stroke-width="3"
     fill="none"
     id="path26-6" />
  <path
     d="m 807.26936,166.56274 h 100"
     stroke="#8b0000"
     stroke-width="3"
     fill="none"
     id="path27-3" />
  <path
     d="m 807.26936,216.56274 h 100"
     stroke="#8b0000"
     stroke-width="3"
     fill="none"
     id="path28-0" />
  <path
     d="m 807.26936,266.56274 h 100"
     stroke="#8b0000"
     stroke-width="3"
     fill="none"
     id="path29-8" />
  <path
     d="m 807.26936,316.56274 h 100"
     stroke="#8b0000"
     stroke-width="3"
     fill="none"
     id="path30-4" />
  <path
     d="m 807.26936,366.56274 h 100"
     stroke="#8b0000"
     stroke-width="3"
     fill="none"
     id="path31-0" />
  <path
     d="m 807.26936,416.56274 h 100"
     stroke="#8b0000"
     stroke-width="3"
     fill="none"
     id="path32-4" />
  <path
     d="m 809.76936,44.062737 h 95 V 439.06274 h -95 z"
     stroke="#8b0000"
     fill="#ffb6c1"
     stroke-linejoin="miter"
     id="path33-6" />
  <text
     x="817.26935"
     y="57.562737"
     font-size="8px"
     text-anchor="start"
     font-weight="bold"
     id="text33-4">THETA</text>
  <path
     d="m 907.26936,66.562738 h 15"
     stroke-width="3"
     stroke="#8b0000"
     stroke-linejoin="miter"
     fill="none"
     id="path34-6" />
  <path
     d="m 907.26936,116.56274 h 15"
     stroke-width="3"
     stroke="#8b0000"
     stroke-linejoin="miter"
     fill="none"
     id="path35-4" />
  <path
     d="m 907.26936,166.56274 h 15"
     stroke-width="3"
     stroke="#8b0000"
     stroke-linejoin="miter"
     fill="none"
     id="path36-3" />
  <path
     d="m 907.26936,216.56274 h 15"
     stroke-width="3"
     stroke="#8b0000"
     stroke-linejoin="miter"
     fill="none"
     id="path37-8" />
  <path
     d="m 907.26936,266.56274 h 15"
     stroke-width="3"
     stroke="#8b0000"
     stroke-linejoin="miter"
     fill="none"
     id="path38-4" />
  <path
     d="m 907.26936,316.56274 h 15"
     stroke-width="3"
     stroke="#8b0000"
     stroke-linejoin="miter"
     fill="none"
     id="path39-0" />
  <path
     d="m 907.26936,366.56274 h 15"
     stroke-width="3"
     stroke="#8b0000"
     stroke-linejoin="miter"
     fill="none"
     id="path40-0" />
  <path
     d="m 907.26936,416.56274 h 15"
     stroke-width="3"
     stroke="#8b0000"
     stroke-linejoin="miter"
     fill="none"
     id="path41-9" />
  <path
     d="m 469.76936,66.562738 h 23"
     stroke="#8b0000"
     stroke-width="3"
     fill="none"
     id="path42-3" />
  <path
     d="m 451.76936,66.562738 c 0,0 0,-10 10,-10 h 8 v 20 h -8 c -10,0 -10,-10 -10,-10 v 0"
     stroke-width="1"
     stroke="#000000"
     stroke-linejoin="miter"
     fill="#ffffff"
     id="path43-7" />
  <text
     x="461.76935"
     y="69.562737"
     font-size="7px"
     text-anchor="middle"
     id="text43-5">1</text>
  <path
     d="m 469.76936,116.56274 h 23"
     stroke="#8b0000"
     stroke-width="3"
     fill="none"
     id="path44-7" />
  <path
     d="m 451.76936,116.56274 c 0,0 0,-10 10,-10 h 8 v 20 h -8 c -10,0 -10,-10 -10,-10 v 0"
     stroke-width="1"
     stroke="#000000"
     stroke-linejoin="miter"
     fill="#ffffff"
     id="path45-2" />
  <text
     x="461.76935"
     y="119.56274"
     font-size="7px"
     text-anchor="middle"
     id="text45-9">0</text>
  <path
     d="m 469.76936,166.56274 h 23"
     stroke="#8b0000"
     stroke-width="3"
     fill="none"
     id="path46-7" />
  <path
     d="m 469.76936,216.56274 h 23"
     stroke="#8b0000"
     stroke-width="3"
     fill="none"
     id="path48-5" />
  <path
     d="m 469.76936,266.56274 h 23"
     stroke="#8b0000"
     stroke-width="3"
     fill="none"
     id="path50-4" />
  <path
     d="m 469.76936,316.56274 h 23"
     stroke="#8b0000"
     stroke-width="3"
     fill="none"
     id="path52-5" />
  <rect
     style="fill:#ffffff;stroke:#000000;stroke-width:0.8"
     id="rect105-4"
     width="32.268448"
     height="110.63468"
     x="927.61719"
     y="33.588097" />
  <path
     d="m 469.76936,366.56274 h 23"
     stroke="#8b0000"
     stroke-width="3"
     fill="none"
     id="path54-2" />
  <path
     d="m 469.76936,416.56274 h 23"
     stroke="#8b0000"
     stroke-width="3"
     fill="none"
     id="path56-2" />
  <path
     d="m 921.06936,66.562738 h 25"
     stroke-width="3"
     stroke="#8b0000"
     stroke-linejoin="miter"
     fill="none"
     id="path66-8" />
  <path
     d="m 935.06936,76.562738 18,-10 -18,-10 v 20"
     stroke-width="1"
     stroke="#000000"
     stroke-linejoin="miter"
     fill="#d3d3d3"
     id="path67-6" />
  <text
     x="933.06927"
     y="53.562737"
     font-size="5px"
     text-anchor="start"
     font-style="italic"
     id="text67-2">Threshold</text>
  <path
     d="m 921.06936,116.56274 h 25"
     stroke-width="3"
     stroke="#8b0000"
     stroke-linejoin="miter"
     fill="none"
     id="path68-5" />
  <path
     d="m 935.06936,126.56274 18,-10 -18,-10 v 20"
     stroke-width="1"
     stroke="#000000"
     stroke-linejoin="miter"
     fill="#d3d3d3"
     id="path69-1" />
  <text
     x="933.06927"
     y="103.56274"
     font-size="5px"
     text-anchor="start"
     font-style="italic"
     id="text69-3">Threshold</text>
  <text
     xml:space="preserve"
     style="font-style:normal;font-weight:normal;font-size:32px;line-height:1.25;font-family:sans-serif;fill:#000000;fill-opacity:1;stroke:none;stroke-width:0.8"
     x="121.73763"
     y="95.484711"
     id="text104"><tspan
       id="tspan104"
       style="font-style:normal;font-variant:normal;font-weight:normal;font-stretch:normal;font-size:32px;font-family:Helvetica;-inkscape-font-specification:'Helvetica, Normal';font-variant-ligatures:normal;font-variant-caps:normal;font-variant-numeric:normal;font-variant-east-asian:normal;stroke-width:0.8"
       x="121.73763"
       y="95.484711">x<tspan
   style="font-size:65%;baseline-shift:sub"
   id="tspan105">t-1</tspan></tspan></text>
  <text
     xml:space="preserve"
     style="font-style:normal;font-weight:normal;font-size:32px;line-height:1.25;font-family:sans-serif;fill:#000000;fill-opacity:1;stroke:none;stroke-width:0.8"
     x="414.68329"
     y="21.656328"
     id="text104-4"><tspan
       id="tspan104-6"
       style="font-style:normal;font-variant:normal;font-weight:normal;font-stretch:normal;font-size:32px;font-family:Helvetica;-inkscape-font-specification:'Helvetica, Normal';font-variant-ligatures:normal;font-variant-caps:normal;font-variant-numeric:normal;font-variant-east-asian:normal;stroke-width:0.8"
       x="414.68329"
       y="21.656328">y<tspan
   style="font-size:65%;baseline-shift:sub"
   id="tspan105-3">t-1</tspan></tspan></text>
  <text
     xml:space="preserve"
     style="font-style:normal;font-weight:normal;font-size:32px;line-height:1.25;font-family:sans-serif;fill:#000000;fill-opacity:1;stroke:none;stroke-width:0.8"
     x="931.50287"
     y="16.734373"
     id="text104-4-0"><tspan
       id="tspan104-6-6"
       style="font-style:normal;font-variant:normal;font-weight:normal;font-stretch:normal;font-size:32px;font-family:Helvetica;-inkscape-font-specification:'Helvetica, Normal';font-variant-ligatures:normal;font-variant-caps:normal;font-variant-numeric:normal;font-variant-east-asian:normal;stroke-width:0.8"
       x="931.50287"
       y="16.734373">y<tspan
   style="font-size:65%;baseline-shift:sub"
   id="tspan105-3-2">t</tspan></tspan></text>
  <text
     xml:space="preserve"
     style="font-style:normal;font-weight:normal;font-size:32px;line-height:1.25;font-family:sans-serif;fill:#000000;fill-opacity:1;stroke:none;stroke-width:0.8"
     x="645.74286"
     y="95.484711"
     id="text104-6"><tspan
       id="tspan104-5"
       style="font-style:normal;font-variant:normal;font-weight:normal;font-stretch:normal;font-size:32px;font-family:Helvetica;-inkscape-font-specification:'Helvetica, Normal';font-variant-ligatures:normal;font-variant-caps:normal;font-variant-numeric:normal;font-variant-east-asian:normal;stroke-width:0.8"
       x="645.74286"
       y="95.484711">x<tspan
   style="font-size:65%;baseline-shift:sub"
   id="tspan105-2">t</tspan></tspan></text>
</svg>
